HIERARCHY
ROOT Hips
{
  OFFSET -1.64238 93.7722 24.3062
  CHANNELS 6 Xposition Yposition Zposition Zrotation Xrotation Yrotation
  JOINT Spine
  {
    OFFSET 0 0 4.66705
    CHANNELS 6 Xposition Yposition Zposition Zrotation Xrotation Yrotation
    JOINT Spine1
    {
      OFFSET 9.33409 0 0
      CHANNELS 6 Xposition Yposition Zposition Zrotation Xrotation Yrotation
      JOINT Spine2
      {
        OFFSET 11.0269 0 0
        CHANNELS 6 Xposition Yposition Zposition Zrotation Xrotation Yrotation
        JOINT Neck
        {
          OFFSET 27.2125 0 -10.2659
          CHANNELS 6 Xposition Yposition Zposition Zrotation Xrotation Yrotation
          JOINT Head
          {
            OFFSET 10.9224 0 0
            CHANNELS 6 Xposition Yposition Zposition Zrotation Xrotation Yrotation
            End Site
            {
              OFFSET 17.6932 0 0
            }
          }
        }
        JOINT RightShoulder
        {
          OFFSET 23.8429 -1.55531 -7.12573
          CHANNELS 6 Xposition Yposition Zposition Zrotation Xrotation Yrotation
          JOINT RightArm
          {
            OFFSET 14.1892 0 0
            CHANNELS 6 Xposition Yposition Zposition Zrotation Xrotation Yrotation
            JOINT RightForeArm
            {
              OFFSET 29.5651 0 0
              CHANNELS 6 Xposition Yposition Zposition Zrotation Xrotation Yrotation
              JOINT RightHand
              {
                OFFSET 25.3936 0 0
                CHANNELS 6 Xposition Yposition Zposition Zrotation Xrotation Yrotation
                JOINT RightFingerBase
                {
                  OFFSET 2.18163 -1.45065e-005 0
                  CHANNELS 6 Xposition Yposition Zposition Zrotation Xrotation Yrotation
                  JOINT RightHandMiddle1
                  {
                    OFFSET 6.77462 0.0865053 -1.22157
                    CHANNELS 6 Xposition Yposition Zposition Zrotation Xrotation Yrotation
                    End Site
                    {
                      OFFSET 0 0 0
                    }
                  }
                }
              }
            }
          }
        }
        JOINT LeftShoulder
        {
          OFFSET 23.8431 1.55531 -7.12577
          CHANNELS 6 Xposition Yposition Zposition Zrotation Xrotation Yrotation
          JOINT LeftArm
          {
            OFFSET -14.1892 0.000694916 0
            CHANNELS 6 Xposition Yposition Zposition Zrotation Xrotation Yrotation
            JOINT LeftForeArm
            {
              OFFSET -29.5651 0 0
              CHANNELS 6 Xposition Yposition Zposition Zrotation Xrotation Yrotation
              JOINT LeftHand
              {
                OFFSET -25.3936 0 0
                CHANNELS 6 Xposition Yposition Zposition Zrotation Xrotation Yrotation
                JOINT LeftFingerBase
                {
                  OFFSET -2.18182 -0.000553688 0
                  CHANNELS 6 Xposition Yposition Zposition Zrotation Xrotation Yrotation
                  JOINT LeftHandMiddle1
                  {
                    OFFSET -6.77445 -0.0859989 1.22158
                    CHANNELS 6 Xposition Yposition Zposition Zrotation Xrotation Yrotation
                    End Site
                    {
                      OFFSET 0 0 0
                    }
                  }
                }
              }
            }
          }
        }
      }
    }
  }
  JOINT RightUpLeg
  {
    OFFSET -8.89671 -5.28428 -4.10676
    CHANNELS 6 Xposition Yposition Zposition Zrotation Xrotation Yrotation
    JOINT RightLeg
    {
      OFFSET 43.6759 0 0
      CHANNELS 6 Xposition Yposition Zposition Zrotation Xrotation Yrotation
      JOINT RightFoot
      {
        OFFSET 45.3154 0 0
        CHANNELS 6 Xposition Yposition Zposition Zrotation Xrotation Yrotation
        JOINT RightToeBase
        {
          OFFSET 14.6877 0 0
          CHANNELS 6 Xposition Yposition Zposition Zrotation Xrotation Yrotation
          End Site
          {
            OFFSET 7.03218 0 0
          }
        }
      }
    }
  }
  JOINT LeftUpLeg
  {
    OFFSET 8.89671 -5.28429 -4.10672
    CHANNELS 6 Xposition Yposition Zposition Zrotation Xrotation Yrotation
    JOINT LeftLeg
    {
      OFFSET -43.676 0 0
      CHANNELS 6 Xposition Yposition Zposition Zrotation Xrotation Yrotation
      JOINT LeftFoot
      {
        OFFSET -45.3154 0 0
        CHANNELS 6 Xposition Yposition Zposition Zrotation Xrotation Yrotation
        JOINT LeftToeBase
        {
          OFFSET -14.6877 0 0
          CHANNELS 6 Xposition Yposition Zposition Zrotation Xrotation Yrotation
          End Site
          {
            OFFSET -7.03217 0 0
          }
        }
      }
    }
  }
}
MOTION
Frames:	4
Frame Time:	0.0333333
14.8259 90.0508 -59.1556 -93.2428 -4.98516 -92.17 -7.10543e-015 3.55271e-015 4.66705 -90.4374 2.00474 -88.2017 9.33409 0 0 -4.00242 -0.936086 -3.36928 11.0269 0 1.77636e-015 -3.86092 -1.41071 0.565904 27.2125 0 -10.2659 10.4476 -1.7743 35.1282 10.9224 7.10543e-015 -1.42109e-014 -3.89619 -5.86353 -36.8591 23.8429 -1.55531 -7.12573 -77.8673 -9.20354 -5.74614 14.1892 -2.84217e-014 -7.10543e-015 -12.1323 9.57601 -12.2863 29.5651 2.84217e-014 1.06581e-014 37.4036 -6.92197 79.6196 25.3936 -2.84217e-014 0 -4.30742 11.6336 6.85722 2.18163 1.42109e-014 -2.84217e-014 -4.57553e-008 -2.07819e-007 1.60631e-008 6.77462 0.0865053 -1.22157 -21.6739 1.19639 -9.42508 23.8431 1.55531 -7.12577 102.522 11.0065 -178.647 -14.1892 0.000694916 -3.55271e-015 -7.16445 -9.10561 -7.77906 -29.5651 0 -4.27958e-007 10.3808 -1.49197 74.8439 -25.3936 2.7868e-008 -5.56579e-007 -11.8956 3.65918 12.782 -2.18182 -0.000553688 -9.22559e-006 1.20534e-006 2.447e-007 -8.05762e-008 -6.77445 -0.0859989 1.22158 -21.6739 1.19639 -9.42508 -8.89671 -5.28428 -4.10676 90.5005 0.0791754 109.182 43.6759 0 -1.77636e-014 2.61993 11.6861 -8.05367 45.3154 0 -2.13163e-014 75.7851 -24.7012 90.4803 14.6877 -3.55271e-015 0 7.13107 -1.32155e-006 -5.71518e-006 8.89671 -5.28429 -4.10672 91.288 4.91324 -91.5 -43.676 0 -3.48883e-006 2.2307 3.88919 -24.3291 -45.3154 -7.10543e-015 3.71138e-006 99.5181 -1.36949 90.1159 -14.6877 -1.30235e-006 -3.88953e-006 7.13108 2.11075e-007 9.6877e-006 
13.2997 89.9188 -59.3171 -93.179 -5.21327 -92.4448 7.10543e-015 0 4.66705 -90.2785 2.4346 -88.3885 9.33409 -1.42109e-014 3.55271e-015 -4.86112 -0.624869 -3.71374 11.0269 0 -1.77636e-015 -4.75103 -1.20485 0.212996 27.2125 0 -10.2659 15.6929 -0.284638 37.1588 10.9224 0 -1.42109e-014 -8.08803 -6.31136 -37.1209 23.8429 -1.55531 -7.12573 -74.3974 -9.1925 -6.38438 14.1892 2.84217e-014 0 -10.6625 17.8199 -12.2634 29.5651 2.84217e-014 1.42109e-014 57.0492 -12.195 81.5066 25.3936 -4.26326e-014 2.84217e-014 2.49635 9.11674 6.60987 2.18163 2.84217e-014 0 -4.57553e-008 -2.07819e-007 1.60631e-008 6.77462 0.0865053 -1.22157 -21.6739 1.19639 -9.42508 23.8431 1.55531 -7.12577 106.242 10.9612 -179.762 -14.1892 0.000694916 -1.06581e-014 -0.79813 0.921978 -4.74204 -29.5651 2.84217e-014 -4.27958e-007 7.99663 -2.82824 71.6875 -25.3936 2.78681e-008 -5.56579e-007 -14.1919 4.45034 11.6681 -2.18182 -0.000553688 -9.22559e-006 1.20534e-006 2.447e-007 -8.05762e-008 -6.77445 -0.0859989 1.22158 -21.6739 1.19639 -9.42508 -8.89671 -5.28428 -4.10676 90.2923 0.23446 109.641 43.6759 -7.10543e-015 -1.77636e-014 2.87604 11.0133 -10.5887 45.3154 0 -2.13163e-014 79.0199 -25.4474 90.6683 14.6877 -7.10543e-015 0 7.13107 -1.32155e-006 -5.71518e-006 8.89671 -5.28429 -4.10672 91.2084 5.01505 -92.2746 -43.676 7.10543e-015 -3.48883e-006 2.27054 3.74665 -24.6677 -45.3154 0 3.71138e-006 99.0296 -1.20786 90.1771 -14.6877 -1.30235e-006 -3.88953e-006 7.13108 2.11075e-007 9.6877e-006 
11.6945 89.8136 -59.5519 -92.8381 -5.17979 -92.3417 -7.10543e-015 0 4.66705 -90.2265 2.46675 -88.4549 9.33409 0 3.55271e-015 -4.92706 -0.518193 -3.85278 11.0269 0 2.66454e-015 -4.82926 -1.10683 0.0729214 27.2125 3.55271e-015 -10.2659 16.3688 -0.255767 37.8667 10.9224 0 0 -9.09966 -6.52541 -36.3388 23.8429 -1.55531 -7.12573 -74.6578 -9.19659 -6.31946 14.1892 2.84217e-014 -3.55271e-015 -8.58767 29.34 -10.9847 29.5651 2.84217e-014 0 60.6563 -15.4766 82.3941 25.3936 -2.84217e-014 2.84217e-014 4.16741 8.96415 5.35984 2.18163 2.84217e-014 0 -4.57553e-008 -2.07819e-007 1.60631e-008 6.77462 0.0865053 -1.22157 -21.6739 1.19639 -9.42508 23.8431 1.55531 -7.12577 107.112 10.7386 179.276 -14.1892 0.000694916 -7.10543e-015 1.71628 12.7832 -1.47819 -29.5651 2.84217e-014 -4.27958e-007 5.45165 -4.03009 65.4297 -25.3936 2.7868e-008 -5.56579e-007 -13.0628 4.09773 12.102 -2.18182 -0.000553688 -9.22559e-006 1.20534e-006 2.447e-007 -8.05762e-008 -6.77445 -0.0859989 1.22158 -21.6739 1.19639 -9.42508 -8.89671 -5.28428 -4.10676 90.7878 -0.0614894 110.27 43.6759 -7.10543e-015 -1.06581e-014 3.45771 10.3972 -12.9722 45.3154 -7.10543e-015 -1.42109e-014 83.1209 -25.6938 90.9987 14.6877 0 0 7.13107 -1.32155e-006 -5.71518e-006 8.89671 -5.28429 -4.10672 91.3469 4.72756 -92.7342 -43.676 0 -3.48883e-006 2.34763 3.47369 -25.2098 -45.3154 -7.10543e-015 3.71138e-006 98.3085 -1.05942 90.2786 -14.6877 -1.30235e-006 -3.88953e-006 7.13108 2.11075e-007 9.6877e-006 
9.94498 89.7409 -59.6116 -92.539 -4.99026 -92.0198 0 0 4.66705 -90.1934 2.4688 -88.4731 9.33409 -7.10543e-015 0 -4.93176 -0.451521 -3.88611 11.0269 0 2.66454e-015 -4.84191 -1.04119 0.0393901 27.2125 -1.42109e-014 -10.2659 16.6577 -0.352785 37.172 10.9224 0 0 -9.72858 -6.65694 -34.5192 23.8429 -1.55531 -7.12573 -75.4671 -9.19518 -6.24838 14.1892 2.84217e-014 0 -9.0746 38.4192 -8.64291 29.5651 4.26326e-014 1.42109e-014 62.1389 -18.3298 82.4651 25.3936 -2.84217e-014 2.84217e-014 8.33773 7.89257 3.789 2.18163 1.42109e-014 0 -4.57553e-008 -2.07819e-007 1.60631e-008 6.77462 0.0865053 -1.22157 -21.6739 1.19639 -9.42508 23.8431 1.55531 -7.12577 108.513 10.4025 177.934 -14.1892 0.000694916 -3.55271e-015 1.55314 22.1481 3.11695 -29.5651 0 -4.27958e-007 9.30456 -8.34887 57.552 -25.3936 2.7868e-008 -5.56579e-007 -0.00293933 1.71451 15.8861 -2.18182 -0.000553688 -9.22559e-006 1.20534e-006 2.447e-007 -8.05762e-008 -6.77445 -0.0859989 1.22158 -21.6739 1.19639 -9.42508 -8.89671 -5.28428 -4.10676 91.1799 -0.33717 110.76 43.6759 -7.10543e-015 -1.77636e-014 3.76046 9.52356 -15.4152 45.3154 -7.10543e-015 -2.4869e-014 88.2908 -25.3311 91.4441 14.6877 -1.77636e-015 0 7.13107 -1.32155e-006 -5.71518e-006 8.89671 -5.28429 -4.10672 91.2598 4.58469 -93.4152 -43.676 7.10543e-015 -3.48883e-006 2.88624 3.48419 -25.5851 -45.3154 -7.10543e-015 3.71138e-006 97.5802 -1.14235 90.3866 -14.6877 -1.30235e-006 -3.88953e-006 7.13108 2.11075e-007 9.6877e-006 
